<?xml version="1.0" encoding="UTF-8" standalone="no"?>
<!-- Created with Inkscape (http://www.inkscape.org/) -->

<svg
   xmlns:dc="http://purl.org/dc/elements/1.1/"
   xmlns:cc="http://creativecommons.org/ns#"
   xmlns:rdf="http://www.w3.org/1999/02/22-rdf-syntax-ns#"
   xmlns:svg="http://www.w3.org/2000/svg"
   xmlns="http://www.w3.org/2000/svg"
   xmlns:sodipodi="http://sodipodi.sourceforge.net/DTD/sodipodi-0.dtd"
   xmlns:inkscape="http://www.inkscape.org/namespaces/inkscape"
   width="210mm"
   height="297mm"
   viewBox="0 0 210 297"
   version="1.1"
   id="svg8"
   inkscape:version="0.92.1 r15371"
   sodipodi:docname="drawing.svg">
  <title
     id="title4663">niconinja</title>
  <defs
     id="defs2" />
  <sodipodi:namedview
     id="base"
     pagecolor="#ffffff"
     bordercolor="#666666"
     borderopacity="1.0"
     inkscape:pageopacity="0.0"
     inkscape:pageshadow="2"
     inkscape:zoom="1.4"
     inkscape:cx="385.38039"
     inkscape:cy="791.90148"
     inkscape:document-units="mm"
     inkscape:current-layer="layer3"
     showgrid="false"
     showguides="false"
     inkscape:lockguides="true"
     inkscape:window-width="1920"
     inkscape:window-height="1057"
     inkscape:window-x="-8"
     inkscape:window-y="-8"
     inkscape:window-maximized="1" />
  <metadata
     id="metadata5">
    <rdf:RDF>
      <cc:Work
         rdf:about="">
        <dc:format>image/svg+xml</dc:format>
        <dc:type
           rdf:resource="http://purl.org/dc/dcmitype/StillImage" />
        <dc:title>niconinja</dc:title>
      </cc:Work>
    </rdf:RDF>
  </metadata>
  <g
     inkscape:label="Layer 1"
     inkscape:groupmode="layer"
     id="layer1"
     sodipodi:insensitive="true">
    <ellipse
       style="opacity:1;fill:none;stroke:#666666;stroke-width:0.42333335;stroke-miterlimit:4;stroke-dasharray:none;stroke-opacity:1"
       id="path4485"
       cx="85.989586"
       cy="79.285713"
       rx="27.403273"
       ry="25.702381" />
  </g>
  <g
     inkscape:groupmode="layer"
     id="layer2"
     inkscape:label="Layer 2"
     sodipodi:insensitive="true">
    <path
       style="opacity:1;vector-effect:none;fill:#000000;fill-opacity:1;stroke:#000000;stroke-width:0.09457553;stroke-linecap:butt;stroke-linejoin:miter;stroke-miterlimit:4;stroke-dasharray:none;stroke-dashoffset:0;stroke-opacity:1"
       d=""
       id="path4598"
       inkscape:connector-curvature="0"
       transform="scale(0.26458333)" />
    <path
       style="opacity:1;vector-effect:none;fill:#000000;fill-opacity:1;stroke:#000000;stroke-width:0.0334375;stroke-linecap:butt;stroke-linejoin:miter;stroke-miterlimit:4;stroke-dasharray:none;stroke-dashoffset:0;stroke-opacity:1"
       d=""
       id="path4602"
       inkscape:connector-curvature="0"
       transform="scale(0.26458333)" />
    <path
       style="opacity:1;vector-effect:none;fill:#000000;fill-opacity:1;stroke:#000000;stroke-width:0.0334375;stroke-linecap:butt;stroke-linejoin:miter;stroke-miterlimit:4;stroke-dasharray:none;stroke-dashoffset:0;stroke-opacity:1"
       d=""
       id="path4604"
       inkscape:connector-curvature="0"
       transform="scale(0.26458333)" />
    <g
       id="g4660"
       transform="matrix(1.5352067,0.15559114,-0.15559114,1.5352067,-6.8727655,-129.28931)">
      <g
         id="g4622">
        <g
           id="g4592">
          <ellipse
             ry="4.7617302"
             rx="5.5192785"
             cy="129.03195"
             cx="62.97538"
             id="path4488"
             style="opacity:1;fill:none;stroke:#000000;stroke-width:0.79269165;stroke-miterlimit:4;stroke-dasharray:none;stroke-opacity:1" />
          <g
             id="g4585">
            <ellipse
               style="opacity:1;vector-effect:none;fill:none;fill-opacity:1;stroke:#000000;stroke-width:0.79269165;stroke-linecap:butt;stroke-linejoin:miter;stroke-miterlimit:4;stroke-dasharray:none;stroke-dashoffset:0;stroke-opacity:1"
               id="path4488-2"
               cx="77.508163"
               cy="127.01659"
               rx="6.8153729"
               ry="5.8799295" />
            <path
               sodipodi:nodetypes="cc"
               style="fill:none;fill-rule:evenodd;stroke:#000000;stroke-width:0.26458332px;stroke-linecap:butt;stroke-linejoin:miter;stroke-opacity:1"
               d="m 68.55543,128.5927 c 1.181177,-1.84263 2.267363,-0.65044 2.267363,-0.65044"
               id="path4572"
               inkscape:connector-curvature="0" />
            <path
               style="fill:none;fill-rule:evenodd;stroke:#000000;stroke-width:0.26458332px;stroke-linecap:butt;stroke-linejoin:miter;stroke-opacity:1"
               d="m 64.636211,124.58862 c 3.585257,0.4812 4.979737,0.31103 6.418341,-0.77019 0.682653,-0.53787 2.379727,-1.5585 2.379727,-1.5585"
               id="path4574"
               inkscape:connector-curvature="0"
               sodipodi:nodetypes="ccc" />
          </g>
        </g>
        <path
           style="opacity:1;vector-effect:none;fill:#000000;fill-opacity:1;stroke:#000000;stroke-width:0.37830213;stroke-linecap:butt;stroke-linejoin:miter;stroke-miterlimit:4;stroke-dasharray:none;stroke-dashoffset:0;stroke-opacity:1"
           d="m 259.66822,482.64136 c -0.97494,-3.383 -3.50003,-7.00329 -6.57452,-9.42607 -0.55558,-0.43781 -1.03856,-0.82551 -1.07329,-0.86155 -0.0347,-0.036 0.84601,-0.0286 1.95717,0.0165 3.38892,0.13765 6.53345,-0.16795 8.96681,-0.87142 1.79175,-0.51799 4.22405,-1.75076 5.63544,-2.85623 0.47801,-0.3744 0.73734,-0.47603 0.51684,-0.20255 -0.36289,0.45008 -1.45388,2.60644 -1.96483,3.88355 -0.99879,2.49641 -1.47334,5.04166 -1.47401,7.90573 l -3.6e-4,1.52991 -1.26266,0.0608 c -1.1341,0.0546 -1.35774,0.10779 -2.19642,0.52229 -0.51356,0.25382 -1.21066,0.71045 -1.54911,1.01474 l -0.61536,0.55326 z"
           id="path4594"
           inkscape:connector-curvature="0"
           transform="scale(0.26458333)" />
        <path
           style="opacity:1;vector-effect:none;fill:#000000;fill-opacity:1;stroke:#000000;stroke-width:0.09457553;stroke-linecap:butt;stroke-linejoin:miter;stroke-miterlimit:4;stroke-dasharray:none;stroke-dashoffset:0;stroke-opacity:1"
           d="m 251.76788,472.2888 -0.11049,-0.0701 0.12154,-0.01 c 0.14372,-0.0118 0.16649,0.004 0.12807,0.0877 -0.0283,0.0617 -0.0301,0.0616 -0.13912,-0.008 z"
           id="path4596"
           inkscape:connector-curvature="0"
           transform="scale(0.26458333)" />
        <path
           style="opacity:1;vector-effect:none;fill:#000000;fill-opacity:1;stroke:#000000;stroke-width:0.09457553;stroke-linecap:butt;stroke-linejoin:miter;stroke-miterlimit:4;stroke-dasharray:none;stroke-dashoffset:0;stroke-opacity:1"
           d="m 269.28771,468.12965 c -0.0401,-0.0262 -0.0352,-0.0405 0.0316,-0.0932 0.13068,-0.103 0.16926,-0.0734 0.0703,0.0539 -0.0404,0.052 -0.0668,0.0622 -0.10189,0.0392 z"
           id="path4600"
           inkscape:connector-curvature="0"
           transform="scale(0.26458333)" />
        <rect
           style="opacity:1;vector-effect:none;fill:#000000;fill-opacity:1;stroke:#000000;stroke-width:0.79269165;stroke-linecap:butt;stroke-linejoin:miter;stroke-miterlimit:4;stroke-dasharray:none;stroke-dashoffset:0;stroke-opacity:1"
           id="rect4610"
           width="0.26726952"
           height="0.0083521726"
           x="-75.0513"
           y="122.09082"
           transform="rotate(-61.419746)" />
      </g>
      <g
         id="g4644">
        <path
           style="opacity:1;vector-effect:none;fill:#000000;fill-opacity:1;stroke:none;stroke-width:0.523745;stroke-linecap:butt;stroke-linejoin:miter;stroke-miterlimit:4;stroke-dasharray:none;stroke-dashoffset:0;stroke-opacity:1"
           d="m 56.580184,127.46441 0.561061,-0.27167 c 0.956223,-0.86255 0.669828,0.32638 0.660619,0.48175 l -0.09871,1.66546 c -0.0092,0.15538 -0.447613,0.41099 -0.967725,0.28096 l -0.624338,-0.15608 c -0.520112,-0.13003 -1.030159,-0.15653 -1.030159,-0.31218 v -1.12381 c 0,-0.15564 0.329644,-0.13912 0.849607,-0.3282 z"
           id="rect4624"
           inkscape:connector-curvature="0"
           sodipodi:nodetypes="ccsssssssc" />
        <path
           style="opacity:1;vector-effect:none;fill:#000000;fill-opacity:1;stroke:none;stroke-width:0.95223784;stroke-linecap:butt;stroke-linejoin:miter;stroke-miterlimit:4;stroke-dasharray:none;stroke-dashoffset:0;stroke-opacity:1"
           d="m 83.921468,121.95438 -1.132283,0.0497 c -2.274669,-0.035 -0.600296,0.93796 -0.33411,1.03403 1.307704,0.472 1.378595,1.5624 1.595626,2.57973 0.337849,0.42968 0.763917,0.57836 1.483925,-0.0787 l 0.864292,-0.7887 c 0.720005,-0.65704 1.513274,-1.13973 1.37891,-1.38879 l -0.97011,-1.79826 c -0.134354,-0.24904 -0.647567,0.062 -1.642793,0.20831 z"
           id="rect4624-0"
           inkscape:connector-curvature="0"
           sodipodi:nodetypes="ccscsssssc" />
      </g>
    </g>
  </g>
  <g
     inkscape:groupmode="layer"
     id="layer3"
     inkscape:label="Layer 3"
     style="display:inline" />
</svg>
